HIERARCHY
ROOT hips
{
  OFFSET 0 11.86390953 0.3628582958
  CHANNELS 6 Xposition Yposition Zposition Yrotation Xrotation Zrotation
  JOINT spine
  {
    OFFSET 0 0.05383551117999996 0
    CHANNELS 3 Yrotation Xrotation Zrotation
    JOINT chest
    {
      OFFSET 0 0.6394558760401424 0
      CHANNELS 3 Yrotation Xrotation Zrotation
      JOINT neck
      {
        OFFSET 0 2.720089088562982 0
        CHANNELS 3 Yrotation Xrotation Zrotation
        JOINT head
        {
          OFFSET 0 0.37880844870545777 0
          CHANNELS 3 Yrotation Xrotation Zrotation
          JOINT rightEye
          {
            OFFSET -0.42867780714 0.7547055649100001 0.7381831347
            CHANNELS 3 Yrotation Xrotation Zrotation
            End Site
            {
              OFFSET -0.42867780714 0.7547055649100001 0.7381831347
            }
          }
          JOINT leftEye
          {
            OFFSET 0.428676479 0.7547055559999993 0.7381844503
            CHANNELS 3 Yrotation Xrotation Zrotation
            End Site
            {
              OFFSET 0.428676479 0.7547055559999993 0.7381844503
            }
          }
          JOINT jaw
          {
            OFFSET -0.18933892286100001 1.5626303011000007 1.137441874206
            CHANNELS 3 Yrotation Xrotation Zrotation
            End Site
            {
              OFFSET -0.18933892286100001 1.5626303011000007 1.137441874206
            }
          }
        }
      }
      JOINT rightShoulder
      {
        OFFSET -0.6795351508 2.0665205 0
        CHANNELS 3 Yrotation Xrotation Zrotation
        JOINT rightUpperArm
        {
          OFFSET -0.7287400483531672 0 0
          CHANNELS 3 Yrotation Xrotation Zrotation
          JOINT rightLowerArm
          {
            OFFSET -1.9872982039174532 0 0
            CHANNELS 3 Yrotation Xrotation Zrotation
            JOINT rightHand
            {
              OFFSET -2.6451847532219275 0 0
              CHANNELS 3 Yrotation Xrotation Zrotation
              JOINT rightLittleProximal
              {
                OFFSET -0.8008804099999995 -0.09592044000000044 -0.26183688629999996
                CHANNELS 3 Yrotation Xrotation Zrotation
                JOINT rightLittleIntermediate
                {
                  OFFSET -0.2473955153999997 -0.02541697026000067 0.002370178700999967
                  CHANNELS 3 Yrotation Xrotation Zrotation
                  JOINT rightLittleDistal
                  {
                    OFFSET -0.163687229200001 -0.015790700860001117 -0.0004274845300000635
                    CHANNELS 3 Yrotation Xrotation Zrotation
                    End Site
                    {
                      OFFSET -0.163687229200001 -0.015790700860001117 -0.0004274845300000635
                    }
                  }
                }
              }
              JOINT rightRingProximal
              {
                OFFSET -0.8393382799999985 -0.06223833561000025 -0.09213143500000005
                CHANNELS 3 Yrotation Xrotation Zrotation
                JOINT rightRingIntermediate
                {
                  OFFSET -0.3284497260000011 -0.03264224524000103 0.009408593183000052
                  CHANNELS 3 Yrotation Xrotation Zrotation
                  JOINT rightRingDistal
                  {
                    OFFSET -0.19447660429999902 -0.021730899850000318 0.003074347969000052
                    CHANNELS 3 Yrotation Xrotation Zrotation
                    End Site
                    {
                      OFFSET -0.19447660429999902 -0.021730899850000318 0.003074347969000052
                    }
                  }
                }
              }
              JOINT rightMiddleProximal
              {
                OFFSET -0.8473005199999989 -0.06735503500000095 0.10541820299999995
                CHANNELS 3 Yrotation Xrotation Zrotation
                JOINT rightMiddleIntermediate
                {
                  OFFSET -0.3450455799999995 -0.02481901642000084 0.019012570390000032
                  CHANNELS 3 Yrotation Xrotation Zrotation
                  JOINT rightMiddleDistal
                  {
                    OFFSET -0.23542332000000088 -0.025003910029999243 0.0075583457949999905
                    CHANNELS 3 Yrotation Xrotation Zrotation
                    End Site
                    {
                      OFFSET -0.23542332000000088 -0.025003910029999243 0.0075583457949999905
                    }
                  }
                }
              }
              JOINT rightIndexProximal
              {
                OFFSET -0.8008568281999987 -0.09897839600000169 0.29462796
                CHANNELS 3 Yrotation Xrotation Zrotation
                JOINT rightIndexIntermediate
                {
                  OFFSET -0.30524754480000016 -0.024634122809999992 0.02743375304999998
                  CHANNELS 3 Yrotation Xrotation Zrotation
                  JOINT rightIndexDistal
                  {
                    OFFSET -0.23067378950000017 -0.016876459159999913 0.008484125099999983
                    CHANNELS 3 Yrotation Xrotation Zrotation
                    End Site
                    {
                      OFFSET -0.23067378950000017 -0.016876459159999913 0.008484125099999983
                    }
                  }
                }
              }
              JOINT rightThumbProximal
              {
                OFFSET -0.25574064999999935 -0.12833189930000155 0.22385698609999993
                CHANNELS 3 Yrotation Xrotation Zrotation
                JOINT rightThumbIntermediate
                {
                  OFFSET -0.22791743260000086 -0.07103586192999978 0.27385039
                  CHANNELS 3 Yrotation Xrotation Zrotation
                  JOINT rightThumbDistal
                  {
                    OFFSET -0.13610267659999975 -0.03369390969999997 0.14246511509999996
                    CHANNELS 3 Yrotation Xrotation Zrotation
                    End Site
                    {
                      OFFSET -0.13610267659999975 -0.03369390969999997 0.14246511509999996
                    }
                  }
                }
              }
            }
          }
        }
      }
      JOINT leftShoulder
      {
        OFFSET 0.6795338396 2.0665205 0
        CHANNELS 3 Yrotation Xrotation Zrotation
        JOINT leftUpperArm
        {
          OFFSET 0.7287383950230443 0 0
          CHANNELS 3 Yrotation Xrotation Zrotation
          JOINT leftLowerArm
          {
            OFFSET 1.9872997282019604 0 0
            CHANNELS 3 Yrotation Xrotation Zrotation
            JOINT leftHand
            {
              OFFSET 2.6451820781302327 0 0
              CHANNELS 3 Yrotation Xrotation Zrotation
              JOINT leftLittleProximal
              {
                OFFSET 0.8008804099999995 -0.09592306899999814 -0.2618342639000001
                CHANNELS 3 Yrotation Xrotation Zrotation
                JOINT leftLittleIntermediate
                {
                  OFFSET 0.2473981400000007 -0.02542352681000093 0.0023609995859999455
                  CHANNELS 3 Yrotation Xrotation Zrotation
                  JOINT leftLittleDistal
                  {
                    OFFSET 0.1636846068000002 -0.015794634789999318 -0.00043272972159996703
                    CHANNELS 3 Yrotation Xrotation Zrotation
                    End Site
                    {
                      OFFSET 0.1636846068000002 -0.015794634789999318 -0.00043272972159996703
                    }
                  }
                }
              }
              JOINT leftRingProximal
              {
                OFFSET 0.8393409199999996 -0.062242267999998324 -0.0921281570000001
                CHANNELS 3 Yrotation Xrotation Zrotation
                JOINT leftRingIntermediate
                {
                  OFFSET 0.3284471036000003 -0.03264224524000103 0.009405970574000042
                  CHANNELS 3 Yrotation Xrotation Zrotation
                  JOINT leftRingDistal
                  {
                    OFFSET 0.1944779099999996 -0.021732211159998904 0.003073036670000001
                    CHANNELS 3 Yrotation Xrotation Zrotation
                    End Site
                    {
                      OFFSET 0.1944779099999996 -0.021732211159998904 0.003073036670000001
                    }
                  }
                }
              }
              JOINT leftMiddleProximal
              {
                OFFSET 0.8473005200000001 -0.06736028199999788 0.1054214809999999
                CHANNELS 3 Yrotation Xrotation Zrotation
                JOINT leftMiddleIntermediate
                {
                  OFFSET 0.3450455799999995 -0.024824261000000014 0.019013225990000007
                  CHANNELS 3 Yrotation Xrotation Zrotation
                  JOINT leftMiddleDistal
                  {
                    OFFSET 0.2354259489999998 -0.025005222000000327 0.0075590014499999705
                    CHANNELS 3 Yrotation Xrotation Zrotation
                    End Site
                    {
                      OFFSET 0.2354259489999998 -0.025005222000000327 0.0075590014499999705
                    }
                  }
                }
              }
              JOINT leftIndexProximal
              {
                OFFSET 0.8008594516999996 -0.09898495199999946 0.29463124239999994
                CHANNELS 3 Yrotation Xrotation Zrotation
                JOINT leftIndexIntermediate
                {
                  OFFSET 0.30524754480000016 -0.024632811499998963 0.02743047472
                  CHANNELS 3 Yrotation Xrotation Zrotation
                  JOINT leftIndexDistal
                  {
                    OFFSET 0.23067378950000017 -0.016876459159999913 0.008481502700000004
                    CHANNELS 3 Yrotation Xrotation Zrotation
                    End Site
                    {
                      OFFSET 0.23067378950000017 -0.016876459159999913 0.008481502700000004
                    }
                  }
                }
              }
              JOINT leftThumbProximal
              {
                OFFSET 0.25574326469999953 -0.12833321050000013 0.22385764169999997
                CHANNELS 3 Yrotation Xrotation Zrotation
                JOINT leftThumbIntermediate
                {
                  OFFSET 0.22804987480000094 -0.07138466829999968 0.273648441
                  CHANNELS 3 Yrotation Xrotation Zrotation
                  JOINT leftThumbDistal
                  {
                    OFFSET 0.13614857189999907 -0.033867001519998885 0.14238119169999996
                    CHANNELS 3 Yrotation Xrotation Zrotation
                    End Site
                    {
                      OFFSET 0.13614857189999907 -0.033867001519998885 0.14238119169999996
                    }
                  }
                }
              }
            }
          }
        }
      }
    }
  }
  JOINT rightUpperLeg
  {
    OFFSET -0.9749898906000001 -1.8495733739999998 0
    CHANNELS 3 Yrotation Xrotation Zrotation
    JOINT rightLowerLeg
    {
      OFFSET 0 -4.1566544686813165 0
      CHANNELS 3 Yrotation Xrotation Zrotation
      JOINT rightFoot
      {
        OFFSET 0.14539718599999998 -4.225553926 -0.3666210900000001
        CHANNELS 3 Yrotation Xrotation Zrotation
        JOINT rightToes
        {
          OFFSET 0.1706738473 -0.9584117400000015 1.0093348617
          CHANNELS 3 Yrotation Xrotation Zrotation
          End Site
          {
            OFFSET 0.1706738473 -0.9584117400000015 1.0093348617
          }
        }
      }
    }
  }
  JOINT leftUpperLeg
  {
    OFFSET 0.9749898906000001 -1.8495733739999998 0
    CHANNELS 3 Yrotation Xrotation Zrotation
    JOINT leftLowerLeg
    {
      OFFSET 0 -4.156653488267941 0
      CHANNELS 3 Yrotation Xrotation Zrotation
      JOINT leftFoot
      {
        OFFSET -0.14537357999999995 -4.225555399999999 -0.36661124279999996
        CHANNELS 3 Yrotation Xrotation Zrotation
        JOINT leftToes
        {
          OFFSET -0.17066467000000002 -0.9584157000000019 1.0093348617
          CHANNELS 3 Yrotation Xrotation Zrotation
          End Site
          {
            OFFSET -0.17066467000000002 -0.9584157000000019 1.0093348617
          }
        }
      }
    }
  }
}
MOTION
Frames: 4
Frame Time: 0.03333333333333333
-0.02171066403388977 -0.1801937096875008 0.1217930018901825 -2.959312973695417 -4.0424078534713646 0.12144213700428243 -0.20132302705551483 -1.2396187335188447 -3.1782197318455894 0.027926088318273045 0.932248509764962 3.6778349230093754 1.1333114009236371 6.944997226033033 -0.3580608789749693 6.026730305068703 -8.181699902621297 -1.8870792972765564 0 0 0 0 0 0 0 0 0 -5.100719155077701 0.1884268760369677 8.756226410673786 22.259604473492026 4.354228604346985 74.33658599502218 10.567046204875208 0.012552547103469666 -0.135720414123506 6.241129131685826 4.755498651603243 -2.7195506966407414 -2.571331652112233 0.554664313587889 24.90109663499116 -2.6328519432122466 0.5537643407015336 25.804996037651886 -2.825567141783592 0.599488477385305 26.257963227318427 -2.398233972263722 0.4797411775222779 22.78662589628385 -2.564639219222034 0.5439504560382524 24.03951906302127 -2.5734460115836097 0.5593280056991448 24.265420002274254 -2.221687030445347 0.40906643947199195 20.348007372862444 -2.194902458021715 0.4209636337875593 21.54367105851541 -2.351156560341313 0.44431399500057583 21.78768791593019 -1.9978040048572028 0.3287757614159097 18.51817801493967 -2.0399197124012094 0.3497594843866762 19.37863501781021 -2.1228976021522783 0.36882054265650027 19.80959696928497 -12.207411551689976 -1.7401212660113579 -7.40384645342204 -15.495433547321564 4.785337671852255 -1.7377924441653485 -6.925580936967933 -0.8473252431614724 -2.597674513466311 -8.24639593239683 4.424490658227766 -4.71892778168682 2.037415072675187 -0.8926151528204566 -81.17969979232589 -8.453130828496873 0.008006723464903444 0.10881051342365557 -2.6134034978100114 10.589268536840303 7.328719152692715 6.266867390100315 1.9876103669868699 -20.994048080335766 -1.5442318627469853 0.6519177897101834 -25.02960898434587 2.684338076181106 0.7176243167502822 -26.092527365583816 1.9928714211745788 0.3309494784630386 -18.850235997824555 2.3270763043180005 0.4562981721682847 -22.171821495792653 2.4626693925065744 0.5134791508376937 -23.538374915240226 1.6605783085025674 0.2278384756164988 -15.657847433242889 2.0052663644475834 0.33396105561517636 -18.95436182844396 2.145027939005641 0.38469531276187546 -20.333987858461008 1.4049381223887625 0.16221871695549242 -13.219330080811329 1.736623285796985 0.24816102515438312 -16.245928112583748 1.8730812985545584 0.2936604665871208 -17.758712258225593 13.646141607417988 -1.4907998983201791 7.101855060176005 16.36491545799994 4.196875160761689 2.3077122981235276 10.172108976473522 0.003552395813705154 3.1875310461885396 -2.08257721880782 -1.7822484298578345 -2.5356600257820685 -10.25211739472741 16.85791270160978 -1.9515037586197748 -9.765641986312936 -10.003303995188327 5.180164283180897 -0.0000031339968569253776 -0.000012525603654555329 -0.0000025210590858196945 13.321957184265784 -1.2322990164440364 5.469686990075369 7.1024375655342915 15.5310442686385 0.6813432508048591 0.6036484898807648 -9.710692997271979 -4.963248695898128 -0.000011720374000477128 -0.20943917265362996 -7.658237504043682e-7
-0.021740317344665527 -0.18026428158691488 0.1226060539484024 -2.9631203116988454 -4.036753777908773 0.12100083633798893 -0.20145806083224338 -1.2443197551090304 -3.1751702132941655 0.028090656863854542 0.940107264548756 3.676397014263036 1.1333950554795817 6.953737914536319 -0.357653902946438 6.025408327718275 -8.18890400989596 -1.8805326043887016 0 0 0 0 0 0 0 0 0 -5.096149555725404 0.18869161400199924 8.746637934479535 22.286930795305743 4.2954535227884625 74.34596488648522 10.46062621544951 0.012307464035428277 -0.13441514455787093 6.2826968768427145 4.728670896414406 -2.7124794216003623 -2.571127123213269 0.5545726353474929 24.898983473405636 -2.632752265175396 0.5537145527006043 25.803916125372254 -2.8255217311229583 0.5994657444176821 26.257450017054403 -2.3979092394519586 0.47961417424161773 22.783325988933303 -2.564461345725673 0.5438604322231666 24.037814361777116 -2.5733784749311974 0.5593083679695943 24.26461133678923 -2.221205829702923 0.40886478367194584 20.3431863590502 -2.1946528574055737 0.4208874591144325 21.541199621840146 -2.3510210668634386 0.4442423025394259 21.786486450495033 -1.9971749523698599 0.32859032940096916 18.5121129224327 -2.039608430388218 0.34963074893134494 19.375607407060407 -2.1227375864367306 0.36876523298673036 19.80805272839921 -12.207411551689976 -1.7401212660113579 -7.40384645342204 -15.495433547321564 4.785337671852255 -1.7377924441653485 -6.925580936967933 -0.8473252431614724 -2.597674513466311 -8.241443011223765 4.4321972006759 -4.738942554222642 2.017112010281648 -0.8406678612077744 -81.15535412644184 -8.575784497762204 0.008256683211391084 0.11036952110454509 -2.5650091961332375 10.548853371180558 7.347299266174109 6.2673112788533825 1.9882991365307423 -21.000152052569362 -1.5439493773130875 0.65204565059177 -25.03268923719562 2.6844821103636156 0.7177028700877918 -26.094059405574846 1.9932447758629253 0.33109390202170613 -18.853910148307534 2.327265041410065 0.4563749608711067 -22.17373170575586 2.462752921897801 0.5134966005373504 -23.53926508600754 1.6606535085891558 0.2278641157090562 -15.658482140485049 2.0052977219469694 0.333990537987258 -18.954697713455698 2.1450296453949043 0.38467930414518653 -20.334180131057753 1.404751567409478 0.16218071053572744 -13.217495249055329 1.7365263225938643 0.24814704447979793 -16.245041955868718 1.873042147142591 0.2936365339302806 -17.75825974747046 13.646141607417988 -1.4907998983201791 7.101855060176005 16.36491545799994 4.196875160761689 2.3077122981235276 10.172108976473522 0.003552395813705154 3.1875310461885396 -2.083415717693472 -1.7841137613674933 -2.5364553771806895 -10.251798916904319 16.858578217160616 -1.9507101741840651 -9.7567761091684 -10.007952632038092 5.180503162100654 -0.000003134067083572744 -0.00006214972147268012 -0.000002521072927593668 13.321192809415335 -1.2339897731187692 5.4687877189262615 7.116029535220771 15.532341567384323 0.6852441062648525 0.6043578957579476 -9.714853306455845 -4.966543165077842 0.000012042856103763363 -0.209004985839088 -2.1883853342985804e-7
-0.021948199719190598 -0.18049220974853597 0.12459444999694824 -2.9701308728037996 -4.029428616092409 0.11534654626689991 -0.2032344829106291 -1.255236033779526 -3.166205808359421 0.028091406293902593 0.9583919492395754 3.6737743789866504 1.1334948420974675 6.97560217471539 -0.3582072268550466 6.020243960085435 -8.21330337192057 -1.8641021271970666 0 0 0 0 0 0 0 0 0 -5.086418358438869 0.18997033378168138 8.73638852800346 22.330757428057417 4.2043362677307465 74.35662903383275 10.293345693045971 0.011901876521186908 -0.13224054631981855 6.3437124495206625 4.673648329026533 -2.7119301056278577 -2.5713604393092435 0.5546783481498444 24.90134721406785 -2.6328555680892634 0.5537724519300203 25.805122826778906 -2.8255903352651948 0.599480419455456 26.258033488975613 -2.3978165399933635 0.47958231669637635 22.78240440799978 -2.564412147888375 0.5438383398348444 24.037352642862313 -2.573356571281857 0.5592917185902442 24.26439129983472 -2.2207032486983356 0.40867209272828775 20.33822864249028 -2.1943929704755663 0.4207777462415201 21.538634641157532 -2.350912018892923 0.44420297440881884 21.785261836794927 -1.9963295715000346 0.32827085272603423 18.50387331391431 -2.0391845195600595 0.34950222692516153 19.371477067398015 -2.122528511408495 0.36869215378537606 19.806002844385652 -12.207411551689976 -1.7401212660113579 -7.40384645342204 -15.495433547321564 4.785337671852255 -1.7377924441653485 -6.925580936967933 -0.8473252431614724 -2.597674513466311 -8.243974478448774 4.44962295768102 -4.77004401507266 1.9656345579734003 -0.7431993170236374 -81.11602957629844 -8.800852884228714 0.008686569919665415 0.11324258401321624 -2.465434334583711 10.488229280774007 7.373034588477597 6.26830282470654 1.989743311000712 -21.013448698232576 -1.5432961738705282 0.6523923585161546 -25.039366179316545 2.684788249681283 0.7178601368619827 -26.09739990998865 1.9941310194073985 0.3313937950266575 -18.862454538956268 2.327697614924405 0.4565459344694939 -22.17816605978934 2.4629632049121777 0.5135921203008411 -23.5413741536781 1.660940021844661 0.22791376837541835 -15.66114199175786 2.0054413095227464 0.33404133838243694 -18.956076375526887 2.1451097602188445 0.3847317590459825 -20.33481607921564 1.4045424778609958 0.16211394250117794 -13.215456605879034 1.7364221055809765 0.2481109988856588 -16.24400334745562 1.8729834807941694 0.29360739852202244 -17.75774511136878 13.646141607417988 -1.4907998983201791 7.101855060176005 16.36491545799994 4.196875160761689 2.3077122981235276 10.172108976473522 0.003552395813705154 3.1875310461885396 -2.0827562698824615 -1.7807412177527775 -2.53200700127741 -10.251739559305195 16.859115270291582 -1.9492944125426315 -9.741940308784772 -10.019382909203488 5.181481375960876 0.00001365809851842957 -0.00009568647035734986 -0.0000044456606608934195 13.325791995885567 -1.2371560885612236 5.476842230607744 7.13205635555019 15.54368087315895 0.6879349877877134 0.6058787493404162 -9.729693289996527 -4.972728992331317 0.00001260001890921689 -0.20959262615230137 0.0000014814055969931983
-0.022409407421946526 -0.18088798458984456 0.12684908509254456 -2.9739199708586166 -4.028851318945734 0.10206155820601977 -0.2058932341074741 -1.2684850113334305 -3.1563472375472013 0.028128878701370548 0.9846037935111798 3.6745694162066327 1.1314615299408772 7.011922155708881 -0.3583889240266688 6.007474214146589 -8.276253865412686 -1.8514924285098169 0 0 0 0 0 0 0 0 0 -5.073030698166942 0.19323182070791967 8.745770001901482 22.350247086331212 4.148070889699314 74.35011790196077 10.168946737243779 0.011629618605074504 -0.1306560054357983 6.37440654071532 4.642437573643795 -2.7306489690220372 -2.5727927815020855 0.5553276734709408 24.915817079765226 -2.6335735269053098 0.554105919484459 25.812363035827865 -2.8259354879328007 0.5996572670046685 26.261654894371063 -2.398879528824501 0.48001242025101054 22.793046798538466 -2.5649609687853387 0.5440909081341805 24.042827388464744 -2.5736132838730335 0.559395617121768 24.267015844964998 -2.2213070608034675 0.40890064307819923 20.344142092299858 -2.1946997817784593 0.42089615716813894 21.541674949553563 -2.3510588156807626 0.4442562301406816 21.78673473438778 -1.9965439800700742 0.32835897962139915 18.506017050362622 -2.0392957767460755 0.34952034327178505 19.37254853479495 -2.122588788887467 0.36870706845256246 19.806528474116995 -12.207411551689976 -1.7401212660113579 -7.40384645342204 -15.495433547321564 4.785337671852255 -1.7377924441653485 -6.925580936967933 -0.8473252431614724 -2.597674513466311 -8.269239460936245 4.469926981164332 -4.777090599132083 1.8688104416068705 -0.7244580886205152 -81.09553734367037 -8.88634270308061 0.008861899510343737 0.11435964471436147 -2.344316527080349 10.508954096400936 7.356144522697715 6.269470165925401 1.991526426121669 -21.029507251144498 -1.5425219986819725 0.6527736999055493 -25.047384557180713 2.685177493868762 0.7180628172935692 -26.101427751635207 1.9951942222412036 0.3317696484879434 -18.873069848085485 2.3282460604068125 0.45677229839720873 -22.18360530406433 2.463221190528053 0.5137116000517084 -23.544000273688944 1.6613215849471488 0.22804498375140034 -15.664957011363331 2.005643985718961 0.3340960875481233 -18.958002567639525 2.145193714419431 0.38475806653958555 -20.335748621096023 1.404354962688421 0.16208734200955263 -13.213779141057264 1.7363314361291586 0.24807892871242143 -16.24318194087421 1.8729456093790782 0.29360208904744883 -17.7573384639061 13.646141607417988 -1.4907998983201791 7.101855060176005 16.36491545799994 4.196875160761689 2.3077122981235276 10.172108976473522 0.003552395813705154 3.1875310461885396 -2.0792083334149574 -1.7681022953960808 -2.517987219210418 -10.253079546916734 16.860496271062022 -1.9476331270556615 -9.733060881819998 -10.0339713163459 5.182164232797774 -1.216968513325899e-7 -0.00018206483299389533 1.5173539805644981e-9 13.338810880507161 -1.243230616934415 5.500088951456807 7.1271697144712896 15.572187859843947 0.68307818172654 0.6076988126610882 -9.754785553463837 -4.978167037757457 0.000001809533050493587 -0.21062960791933308 0.0000024742854660174084
